<svg width="16" height="16" viewBox="0 0 16 16" fill="none" xmlns="http://www.w3.org/2000/svg">
<g clip-path="url(#clip0_10283_15659)">
<path d="M3 6C3 4.97251 3.30993 4.0174 3.84141 3.22307L3.06441 1.71657C2.96787 1.52939 3.00342 1.30127 3.15234 1.15234C3.30127 1.00342 3.52939 0.967868 3.71657 1.06441L5.22307 1.84141C6.0174 1.30993 6.97251 1 8 1C9.02721 1 9.98207 1.30976 10.7763 1.84097L12.2874 1.06065C12.4745 0.964032 12.7027 0.999529 12.8516 1.14844C13.0005 1.29735 13.036 1.52547 12.9393 1.71258L12.159 3.22372C12.6902 4.01793 13 4.97279 13 6V7C11.3431 7 10 8.34315 10 10V10.2676C9.4022 10.6134 9 11.2597 9 12V15H7C4.79086 15 3 13.2091 3 11V6Z" fill="#548AF7"/>
<path d="M7.5 4.75C7.5 5.7165 6.7165 6.5 5.75 6.5C4.7835 6.5 4 5.7165 4 4.75C4 3.7835 4.7835 3 5.75 3C6.7165 3 7.5 3.7835 7.5 4.75Z" fill="white"/>
<path d="M12 4.75C12 5.7165 11.2165 6.5 10.25 6.5C9.2835 6.5 8.5 5.7165 8.5 4.75C8.5 3.7835 9.2835 3 10.25 3C11.2165 3 12 3.7835 12 4.75Z" fill="white"/>
<path d="M9 7.5H7V8.5C7 8.77614 7.22386 9 7.5 9H8.5C8.77614 9 9 8.77614 9 8.5V7.5Z" fill="white"/>
<path d="M8 8.25C8.69036 8.25 9.25 7.91421 9.25 7.5C9.25 7.08579 8.69036 6.75 8 6.75C7.30964 6.75 6.75 7.08579 6.75 7.5C6.75 7.91421 7.30964 8.25 8 8.25Z" fill="#CCA18A"/>
<path d="M4.71409 14.2829C4.32586 14.0121 3.98791 13.6741 3.71708 13.2859L3.20649 13.7965C2.93117 14.0718 2.93117 14.5182 3.20649 14.7935C3.48181 15.0688 3.92819 15.0688 4.20351 14.7935L4.71409 14.2829Z" fill="#CCA18A"/>
<path d="M3.99843 8.99849L2.99843 9.99849C2.72311 10.2738 2.27673 10.2738 2.00141 9.99849C1.72609 9.72317 1.72609 9.27678 2.00141 9.00146L3.00141 8.00146L3.99843 8.99849Z" fill="#CCA18A"/>
<path d="M6.5 4.75C6.5 5.16421 6.16421 5.5 5.75 5.5C5.33579 5.5 5 5.16421 5 4.75C5 4.33579 5.33579 4 5.75 4C6.16421 4 6.5 4.33579 6.5 4.75Z" fill="#1E1F22"/>
<path d="M11 4.75C11 5.16421 10.6642 5.5 10.25 5.5C9.83579 5.5 9.5 5.16421 9.5 4.75C9.5 4.33579 9.83579 4 10.25 4C10.6642 4 11 4.33579 11 4.75Z" fill="#1E1F22"/>
<path d="M8.5 7.5C8.77614 7.5 9.00684 7.27302 8.94406 7.00411C8.80756 6.41937 8.43643 6 8 6C7.56357 6 7.19244 6.41937 7.05594 7.00411C6.99316 7.27302 7.22386 7.5 7.5 7.5H8.5Z" fill="#1E1F22"/>
<rect x="11" y="12" width="4" height="3" fill="#43454A"/>
<path fill-rule="evenodd" clip-rule="evenodd" d="M15 11V10C15 8.89543 14.1046 8 13 8C11.8954 8 11 8.89543 11 10V11C10.4477 11 10 11.4477 10 12V15C10 15.5523 10.4477 16 11 16H15C15.5523 16 16 15.5523 16 15V12C16 11.4477 15.5523 11 15 11ZM12 10C12 9.44772 12.4477 9 13 9C13.5523 9 14 9.44772 14 10V11H12V10ZM11 15L11 12H15V15H11Z" fill="#CED0D6"/>
</g>
<defs>
<clipPath id="clip0_10283_15659">
<rect width="16" height="16" fill="white"/>
</clipPath>
</defs>
</svg>
